STARTFONT 2.1
COMMENT
COMMENT Converted from OpenType font "Q:\font stuff\winfont\76London.otf" by "otf2bdf 3.0".
COMMENT
FONT -FreeType-76London-Medium-R-Normal--38-380-72-72-P-153-ISO10646-1
SIZE 36 72 72
FONTBOUNDINGBOX 40 46 -1 -6
STARTPROPERTIES 19
FOUNDRY "FreeType"
FAMILY_NAME "76London"
WEIGHT_NAME "Medium"
SLANT "R"
SETWIDTH_NAME "Normal"
ADD_STYLE_NAME ""
PIXEL_SIZE 32
POINT_SIZE 380
RESOLUTION_X 72
RESOLUTION_Y 72
SPACING "P"
AVERAGE_WIDTH 153
CHARSET_REGISTRY "ISO10646"
CHARSET_ENCODING "1"
FONT_ASCENT 35
FONT_DESCENT 5
COPYRIGHT "Copyright © 1997 [T-26] 1110 N. Milwaukee Ave. IL 60622. T0279 ID#5092439 Designer: Peter Bruhn"
_OTF_FONTFILE "Q:\font stuff\winfont\76London.otf"
_OTF_PSNAME "76London"
ENDPROPERTIES
CHARS 211
STARTCHAR 0020
ENCODING 32
SWIDTH 289 0
DWIDTH 11 0
BBX 0 0 0 0
BITMAP
ENDCHAR
STARTCHAR 0021
ENCODING 33
SWIDTH 289 0
DWIDTH 11 0
BBX 6 30 2 0
BITMAP
7C
FC
FC
FC
FC
FC
FC
FC
FC
FC
FC
FC
FC
FC
FC
FC
FC
FC
FC
FC
FC
FC
FC
00
00
FC
FC
FC
FC
FC
ENDCHAR
STARTCHAR 0022
ENCODING 34
SWIDTH 421 0
DWIDTH 16 0
BBX 11 9 3 21
BITMAP
FBE0
FBE0
FBE0
FBE0
71C0
71C0
71C0
71C0
71C0
ENDCHAR
STARTCHAR 0023
ENCODING 35
SWIDTH 605 0
DWIDTH 23 0
BBX 23 30 0 -1
BITMAP
007870
007070
0070F0
0070F0
00F0E0
00F0E0
00E1E0
00E1E0
1FFFFE
1FFFFC
1FFFFC
1FFFFC
01C3C0
03C380
03C380
038780
038780
078700
7FFFF0
7FFFF0
7FFFF0
FFFFE0
0F0E00
0E0E00
0E1E00
0E1E00
1E1C00
1E1C00
1C3C00
1C3C00
ENDCHAR
STARTCHAR 0024
ENCODING 36
SWIDTH 578 0
DWIDTH 22 0
BBX 17 30 3 -1
BITMAP
01E000
01E000
0FFE00
3FFE00
7FFE00
FFFE00
F80000
F80000
F80000
F80000
FC0000
FE0000
FFFC00
7FFF00
7FFF00
1FFF80
001F80
000F80
000F80
000F80
000F80
000F80
000F80
001F80
3FFF80
3FFF00
3FFF00
3FFC00
01E000
01E000
ENDCHAR
STARTCHAR 0025
ENCODING 37
SWIDTH 710 0
DWIDTH 27 0
BBX 25 30 1 0
BITMAP
3FC01C00
7FE01C00
F0F03800
E0707800
E0707000
E070E000
E070E000
E071C000
E071C000
E0738000
E0778000
F0F70000
7FEE0000
3FCE0000
001C0000
001C0000
0039FE00
007BFF00
00778780
00E70380
00E70380
01C70380
01C70380
03870380
07870380
07070380
0E070380
0E078780
1C03FF00
1C01FE00
ENDCHAR
STARTCHAR 0026
ENCODING 38
SWIDTH 684 0
DWIDTH 26 0
BBX 22 30 2 -1
BITMAP
0FFF00
3FFF00
7FFF00
FFFF00
FE0000
F80000
F80000
F80000
F80000
F80000
F80000
FC0000
FFFFFC
7FFFFC
3FFFFC
7FFFFC
7C07C0
F807C0
F807C0
F807C0
F807C0
F807C0
F807C0
F807C0
F807C0
FC0FC0
FFFFC0
7FFFC0
7FFF80
1FFE00
ENDCHAR
STARTCHAR 0027
ENCODING 39
SWIDTH 289 0
DWIDTH 11 0
BBX 5 9 3 21
BITMAP
F8
F8
F8
F8
70
70
70
70
70
ENDCHAR
STARTCHAR 0028
ENCODING 40
SWIDTH 289 0
DWIDTH 11 0
BBX 9 30 1 0
BITMAP
0380
0F80
1C00
3800
7800
7800
7800
F800
F800
F800
F800
F800
F800
F800
F800
F800
F800
F800
F800
F800
F800
F800
F800
7800
7800
7800
3C00
3C00
1F80
0780
ENDCHAR
STARTCHAR 0029
ENCODING 41
SWIDTH 289 0
DWIDTH 11 0
BBX 9 30 0 0
BITMAP
F000
FC00
1E00
1E00
0F00
0F00
0F00
0F80
0F80
0F80
0F80
0F80
0F80
0F80
0F80
0F80
0F80
0F80
0F80
0F80
0F80
0F80
0F80
0F00
0F00
0F00
0E00
1C00
F800
E000
ENDCHAR
STARTCHAR 002A
ENCODING 42
SWIDTH 605 0
DWIDTH 23 0
BBX 13 14 5 15
BITMAP
0700
0700
0700
4700
6730
7FF8
FFF8
3FE0
0F80
0FC0
1DE0
3DE0
3CE0
08C0
ENDCHAR
STARTCHAR 002B
ENCODING 43
SWIDTH 605 0
DWIDTH 23 0
BBX 19 20 2 1
BITMAP
01F000
01F000
01F000
01F000
01F000
01F000
01F000
7FFFE0
FFFFE0
FFFFE0
FFFFE0
FFFFE0
FFFFE0
01F000
01F000
01F000
01F000
01F000
01F000
01F000
ENDCHAR
STARTCHAR 002C
ENCODING 44
SWIDTH 289 0
DWIDTH 11 0
BBX 6 8 2 -3
BITMAP
FC
FC
FC
FC
FC
38
F8
E0
ENDCHAR
STARTCHAR 002D
ENCODING 45
SWIDTH 368 0
DWIDTH 14 0
BBX 9 6 2 8
BITMAP
7F80
FF80
FF80
FF80
FF80
7F00
ENDCHAR
STARTCHAR 002E
ENCODING 46
SWIDTH 289 0
DWIDTH 11 0
BBX 6 5 2 1
BITMAP
FC
FC
FC
FC
FC
ENDCHAR
STARTCHAR 002F
ENCODING 47
SWIDTH 289 0
DWIDTH 11 0
BBX 11 30 0 0
BITMAP
00E0
00C0
01C0
01C0
01C0
0180
0380
0380
0380
0300
0700
0700
0700
0600
0E00
0E00
0E00
1C00
1C00
1C00
1800
3800
3800
3800
3000
7000
7000
7000
6000
E000
ENDCHAR
STARTCHAR 0030
ENCODING 48
SWIDTH 605 0
DWIDTH 23 0
BBX 18 30 2 0
BITMAP
0FFC00
3FFF00
7FFF80
7FFF80
FE1FC0
FC0FC0
F807C0
F807C0
F807C0
F807C0
F807C0
F807C0
F807C0
F807C0
F807C0
F807C0
F807C0
F807C0
F807C0
F807C0
F807C0
F807C0
F807C0
F807C0
FC0FC0
FE1FC0
7FFF80
7FFF80
3FFF00
0FFC00
ENDCHAR
STARTCHAR 0031
ENCODING 49
SWIDTH 342 0
DWIDTH 13 0
BBX 8 30 2 0
BITMAP
FC
FE
FE
FE
7F
1F
1F
1F
1F
1F
1F
1F
1F
1F
1F
1F
1F
1F
1F
1F
1F
1F
1F
1F
1F
1F
1F
1F
1F
1F
ENDCHAR
STARTCHAR 0032
ENCODING 50
SWIDTH 605 0
DWIDTH 23 0
BBX 17 30 3 0
BITMAP
3FF800
3FFE00
3FFF00
3FFF00
003F80
000F80
000F80
000F80
000F80
000F80
000F80
001F80
003F80
1FFF80
3FFF00
7FFE00
FFFC00
FC0000
FC0000
F80000
F80000
F80000
F80000
F80000
F80000
F80000
FFFF80
FFFF80
FFFF80
FFFF80
ENDCHAR
STARTCHAR 0033
ENCODING 51
SWIDTH 526 0
DWIDTH 20 0
BBX 15 30 2 0
BITMAP
FFF0
FFF8
FFFC
FFFC
00FE
007E
003E
003E
003E
003E
003E
003E
3FFE
3FFE
3FFE
3FFE
003E
003E
003E
003E
003E
003E
003E
003E
007E
00FE
FFFC
FFFC
FFFC
FFF0
ENDCHAR
STARTCHAR 0034
ENCODING 52
SWIDTH 605 0
DWIDTH 23 0
BBX 17 30 3 0
BITMAP
F80F80
F80F80
F80F80
F80F80
F80F80
F80F80
F80F80
F80F80
F80F80
F80F80
F80F80
F80F80
FC0F80
FFFF80
7FFF80
7FFF80
3FFF80
000F80
000F80
000F80
000F80
000F80
000F80
000F80
000F80
000F80
000F80
000F80
000F80
000F80
ENDCHAR
STARTCHAR 0035
ENCODING 53
SWIDTH 605 0
DWIDTH 23 0
BBX 17 30 3 0
BITMAP
0FFE00
3FFE00
7FFE00
7FFE00
FE0000
F80000
F80000
F80000
F80000
F80000
F80000
F80000
FFFC00
FFFE00
FFFF00
FFFF80
003F80
001F80
000F80
000F80
000F80
000F80
000F80
000F80
000F80
003F80
FFFF00
FFFF00
FFFE00
FFF800
ENDCHAR
STARTCHAR 0036
ENCODING 54
SWIDTH 605 0
DWIDTH 23 0
BBX 18 30 2 0
BITMAP
1FFF00
3FFF00
7FFF00
7FFF00
FF0000
FC0000
F80000
F80000
F80000
F80000
F80000
F80000
F9FE00
FBFF00
FFFF80
FFFFC0
FE1FC0
F807C0
F807C0
F807C0
F807C0
F807C0
F807C0
F807C0
F807C0
7C0FC0
7FFFC0
7FFFC0
3FFF80
0FFE00
ENDCHAR
STARTCHAR 0037
ENCODING 55
SWIDTH 552 0
DWIDTH 21 0
BBX 15 30 1 0
BITMAP
FFF8
FFFC
FFFC
FFFC
01FE
007E
003E
003E
003E
003E
003E
003E
003E
003E
003E
003E
003E
003E
003E
003E
003E
003E
003E
003E
003E
003E
003E
003E
003E
003E
ENDCHAR
STARTCHAR 0038
ENCODING 56
SWIDTH 578 0
DWIDTH 22 0
BBX 18 30 2 0
BITMAP
0FFE00
3FFF80
7FFF80
FFFFC0
FC0FC0
F807C0
F807C0
F807C0
F807C0
F807C0
F807C0
F807C0
F807C0
FC0FC0
7FFF80
7FFF00
7FFF80
FC0FC0
F807C0
F807C0
F807C0
F807C0
F807C0
F807C0
F807C0
FC0FC0
FFFFC0
7FFF80
7FFF80
1FFE00
ENDCHAR
STARTCHAR 0039
ENCODING 57
SWIDTH 605 0
DWIDTH 23 0
BBX 17 30 3 0
BITMAP
1FF800
7FFE00
FFFF00
FFFF00
FC1F00
F80F80
F80F80
F80F80
F80F80
F80F80
F80F80
F80F80
F80F80
FC1F80
FFFF80
7FFF80
3FEF80
1FCF80
000F80
000F80
000F80
000F80
000F80
000F80
001F80
003F80
3FFF00
3FFF00
3FFF00
3FFE00
ENDCHAR
STARTCHAR 003A
ENCODING 58
SWIDTH 289 0
DWIDTH 11 0
BBX 6 22 2 0
BITMAP
7C
FC
FC
FC
FC
00
00
00
00
00
00
00
00
00
00
00
00
FC
FC
FC
FC
FC
ENDCHAR
STARTCHAR 003B
ENCODING 59
SWIDTH 289 0
DWIDTH 11 0
BBX 6 25 2 -4
BITMAP
7C
FC
FC
FC
FC
00
00
00
00
00
00
00
00
00
00
00
00
FC
FC
FC
FC
FC
38
F8
E0
ENDCHAR
STARTCHAR 003C
ENCODING 60
SWIDTH 236 0
DWIDTH 9 0
BBX 7 14 1 4
BITMAP
1C
1C
38
38
70
70
E0
70
70
38
38
1C
1C
0E
ENDCHAR
STARTCHAR 003D
ENCODING 61
SWIDTH 605 0
DWIDTH 23 0
BBX 20 16 2 3
BITMAP
FFFFE0
FFFFE0
FFFFF0
FFFFF0
FFFFE0
FFFFE0
000000
000000
000000
000000
FFFFE0
FFFFE0
FFFFF0
FFFFF0
FFFFE0
FFFFE0
ENDCHAR
STARTCHAR 003E
ENCODING 62
SWIDTH 236 0
DWIDTH 9 0
BBX 7 14 1 4
BITMAP
E0
70
70
38
38
1C
1C
1E
1C
38
38
70
70
E0
ENDCHAR
STARTCHAR 003F
ENCODING 63
SWIDTH 605 0
DWIDTH 23 0
BBX 15 30 5 0
BITMAP
FFE0
FFF8
FFFC
FFFE
00FE
003E
003E
003E
003E
003E
007E
00FE
1FFE
3FFC
7FFC
FFF8
FF00
FC00
F800
F800
F800
F800
F800
0000
2000
F800
F800
F800
F800
F800
ENDCHAR
STARTCHAR 0040
ENCODING 64
SWIDTH 868 0
DWIDTH 33 0
BBX 28 31 3 0
BITMAP
00FFF000
0FFFFF00
1FFFFF80
3E0007C0
700001E0
60000060
E0000070
C0000030
C03FE030
C07FF030
C0F8F830
C0F07830
C0F07830
C0F07830
C0F07830
C0F07830
C0FFFFF0
C0FFFFF0
C0F07800
C0F07800
C0F07800
C0F07800
C0F07800
C0F07800
E0000000
60000000
60000000
70000000
3C000000
0FFFF800
01FFF800
ENDCHAR
STARTCHAR 0041
ENCODING 65
SWIDTH 605 0
DWIDTH 23 0
BBX 17 30 3 0
BITMAP
0FF800
3FFE00
7FFF00
7FFF00
FC1F80
F81F80
F80F80
F80F80
F80F80
F80F80
F80F80
F80F80
F80F80
F80F80
FFFF80
FFFF80
FFFF80
FFFF80
F80F80
F80F80
F80F80
F80F80
F80F80
F80F80
F80F80
F80F80
F80F80
F80F80
F80F80
F80F80
ENDCHAR
STARTCHAR 0042
ENCODING 66
SWIDTH 578 0
DWIDTH 22 0
BBX 17 30 3 0
BITMAP
0FF800
3FFE00
7FFF00
7FFF00
FC1F80
FC0F80
F80F80
F80F80
F80F80
F80F80
F80F80
F80F80
F81F80
FFFF00
FFFE00
FFFE00
FFFF00
F81F80
F81F80
F80F80
F80F80
F80F80
F80F80
F80F80
F81F80
F83F80
FFFF80
FFFF00
FFFF00
FFFC00
ENDCHAR
STARTCHAR 0043
ENCODING 67
SWIDTH 526 0
DWIDTH 20 0
BBX 15 30 2 0
BITMAP
1FFE
3FFE
7FFE
7FFE
7E00
FC00
F800
F800
F800
F800
F800
F800
F800
F800
F800
F800
F800
F800
F800
F800
F800
F800
F800
F800
FC00
FF00
7FFE
7FFE
7FFE
3FFE
ENDCHAR
STARTCHAR 0044
ENCODING 68
SWIDTH 578 0
DWIDTH 22 0
BBX 17 30 3 0
BITMAP
FFFC00
FFFE00
FFFF00
FFFF00
F83F80
F81F80
F80F80
F80F80
F80F80
F80F80
F80F80
F80F80
F80F80
F80F80
F80F80
F80F80
F80F80
F80F80
F80F80
F80F80
F80F80
F80F80
F80F80
F80F80
F81F80
F83F80
FFFF00
FFFF00
FFFF00
FFFE00
ENDCHAR
STARTCHAR 0045
ENCODING 69
SWIDTH 526 0
DWIDTH 20 0
BBX 15 30 2 0
BITMAP
1FFE
3FFE
7FFE
7FFE
7E00
FC00
F800
F800
F800
F800
F800
F800
FFF8
FFF8
FFF8
FFF8
F800
F800
F800
F800
F800
F800
F800
F800
FC00
FF00
7FFE
7FFE
7FFE
3FFE
ENDCHAR
STARTCHAR 0046
ENCODING 70
SWIDTH 526 0
DWIDTH 20 0
BBX 15 30 2 0
BITMAP
1FFE
3FFE
7FFE
7FFE
7E00
FC00
F800
F800
F800
F800
F800
F800
FFF8
FFF8
FFF8
FFF8
F800
F800
F800
F800
F800
F800
F800
F800
F800
F800
F800
F800
F800
F800
ENDCHAR
STARTCHAR 0047
ENCODING 71
SWIDTH 578 0
DWIDTH 22 0
BBX 18 30 2 0
BITMAP
1FFF00
3FFF00
7FFF00
7FFF00
7E0000
FC0000
F80000
F80000
F80000
F80000
F80000
F80000
F80000
F80000
F87FC0
F87FC0
F87FC0
F87FC0
F807C0
F807C0
F807C0
F807C0
F807C0
F807C0
FC0FC0
FF3FC0
7FFFC0
7FFFC0
3FF9C0
1FE000
ENDCHAR
STARTCHAR 0048
ENCODING 72
SWIDTH 605 0
DWIDTH 23 0
BBX 17 30 3 0
BITMAP
F80F80
F80F80
F80F80
F80F80
F80F80
F80F80
F80F80
F80F80
F80F80
F80F80
F80F80
F80F80
FFFF80
FFFF80
FFFF80
FFFF80
F80F80
F80F80
F80F80
F80F80
F80F80
F80F80
F80F80
F80F80
F80F80
F80F80
F80F80
F80F80
F80F80
F80F80
ENDCHAR
STARTCHAR 0049
ENCODING 73
SWIDTH 289 0
DWIDTH 11 0
BBX 5 30 3 0
BITMAP
F8
F8
F8
F8
F8
F8
F8
F8
F8
F8
F8
F8
F8
F8
F8
F8
F8
F8
F8
F8
F8
F8
F8
F8
F8
F8
F8
F8
F8
F8
ENDCHAR
STARTCHAR 004A
ENCODING 74
SWIDTH 552 0
DWIDTH 21 0
BBX 15 30 1 0
BITMAP
003E
003E
003E
003E
003E
003E
003E
003E
003E
003E
003E
003E
003E
003E
003E
003E
003E
003E
003E
003E
003E
003E
003E
003E
007E
00FE
FFFC
FFFC
FFFC
FFF0
ENDCHAR
STARTCHAR 004B
ENCODING 75
SWIDTH 578 0
DWIDTH 22 0
BBX 17 30 3 0
BITMAP
F80F80
F81F00
F81F00
F83E00
F83E00
F87C00
F87C00
F8F800
F8F800
F9F000
FBF000
FBE000
FFE000
FFFC00
FFFE00
FFFF00
FFFF00
F81F80
F80F80
F80F80
F80F80
F80F80
F80F80
F80F80
F80F80
F80F80
F80F80
F80F80
F80F80
F80F80
ENDCHAR
STARTCHAR 004C
ENCODING 76
SWIDTH 500 0
DWIDTH 19 0
BBX 15 30 3 0
BITMAP
F800
F800
F800
F800
F800
F800
F800
F800
F800
F800
F800
F800
F800
F800
F800
F800
F800
F800
F800
F800
F800
F800
F800
F800
FC00
FF00
7FFE
7FFE
7FFE
3FFE
ENDCHAR
STARTCHAR 004D
ENCODING 77
SWIDTH 947 0
DWIDTH 36 0
BBX 30 30 3 0
BITMAP
0FFFFFC0
3FFFFFF0
7FFFFFF8
7FFFFFF8
FC1FE1FC
F80FC0FC
F80F807C
F80F807C
F80F807C
F80F807C
F80F807C
F80F807C
F80F807C
F80F807C
F80F807C
F80F807C
F80F807C
F80F807C
F80F807C
F80F807C
F80F807C
F80F807C
F80F807C
F80F807C
F80F807C
F80F807C
F80F807C
F80F807C
F80F807C
F80F807C
ENDCHAR
STARTCHAR 004E
ENCODING 78
SWIDTH 605 0
DWIDTH 23 0
BBX 17 30 3 0
BITMAP
0FF800
3FFE00
7FFF00
7FFF00
FC1F80
F81F80
F80F80
F80F80
F80F80
F80F80
F80F80
F80F80
F80F80
F80F80
F80F80
F80F80
F80F80
F80F80
F80F80
F80F80
F80F80
F80F80
F80F80
F80F80
F80F80
F80F80
F80F80
F80F80
F80F80
F80F80
ENDCHAR
STARTCHAR 004F
ENCODING 79
SWIDTH 605 0
DWIDTH 23 0
BBX 18 30 2 0
BITMAP
0FFC00
3FFF00
7FFF80
7FFF80
FE1FC0
FC0FC0
F807C0
F807C0
F807C0
F807C0
F807C0
F807C0
F807C0
F807C0
F807C0
F807C0
F807C0
F807C0
F807C0
F807C0
F807C0
F807C0
F807C0
F807C0
FC0FC0
FE1FC0
7FFF80
7FFF80
3FFF00
0FFC00
ENDCHAR
STARTCHAR 0050
ENCODING 80
SWIDTH 552 0
DWIDTH 21 0
BBX 17 30 3 0
BITMAP
0FF800
3FFE00
7FFF00
7FFF00
FC1F00
FC1F80
F80F80
F80F80
F80F80
F80F80
F80F80
F80F80
F80F80
F80F80
F81F80
FFFF80
FFFF00
FFFF00
FFFE00
F80000
F80000
F80000
F80000
F80000
F80000
F80000
F80000
F80000
F80000
F80000
ENDCHAR
STARTCHAR 0051
ENCODING 81
SWIDTH 605 0
DWIDTH 23 0
BBX 18 34 2 -4
BITMAP
0FFC00
3FFF00
7FFF80
7FFF80
FE1FC0
FC0FC0
F807C0
F807C0
F807C0
F807C0
F807C0
F807C0
F807C0
F807C0
F807C0
F807C0
F807C0
F807C0
F807C0
F807C0
F807C0
F807C0
F807C0
F807C0
FC0FC0
FE1FC0
7FFF80
7FFF80
3FFF00
1FFE00
01F000
01F000
01F000
01F000
ENDCHAR
STARTCHAR 0052
ENCODING 82
SWIDTH 578 0
DWIDTH 22 0
BBX 17 30 3 0
BITMAP
0FF800
3FFE00
7FFF00
7FFF00
FC1F80
FC0F80
F80F80
F80F80
F80F80
F80F80
F80F80
F80F80
F81F80
FFFF00
FFFE00
FFFE00
FFFF00
F81F80
F80F80
F80F80
F80F80
F80F80
F80F80
F80F80
F80F80
F80F80
F80F80
F80F80
F80F80
F80F80
ENDCHAR
STARTCHAR 0053
ENCODING 83
SWIDTH 578 0
DWIDTH 22 0
BBX 17 30 2 0
BITMAP
0FFE00
3FFE00
7FFE00
7FFE00
FE0000
F80000
F80000
F80000
F80000
F80000
F80000
FC0000
FE0000
FFFC00
7FFF00
3FFF00
1FFF80
003F80
001F80
000F80
000F80
000F80
000F80
000F80
000F80
003F80
3FFF80
3FFF00
3FFE00
3FF800
ENDCHAR
STARTCHAR 0054
ENCODING 84
SWIDTH 447 0
DWIDTH 17 0
BBX 15 30 1 0
BITMAP
FFFE
FFFE
FFFE
FFFE
07C0
07C0
07C0
07C0
07C0
07C0
07C0
07C0
07C0
07C0
07C0
07C0
07C0
07C0
07C0
07C0
07C0
07C0
07C0
07C0
07C0
07C0
07C0
07C0
07C0
07C0
ENDCHAR
STARTCHAR 0055
ENCODING 85
SWIDTH 605 0
DWIDTH 23 0
BBX 17 30 3 0
BITMAP
F80F80
F80F80
F80F80
F80F80
F80F80
F80F80
F80F80
F80F80
F80F80
F80F80
F80F80
F80F80
F80F80
F80F80
F80F80
F80F80
F80F80
F80F80
F80F80
F80F80
F80F80
F80F80
F80F80
F80F80
F80F80
FC1F80
FFFF80
7FFF00
7FFE00
1FFC00
ENDCHAR
STARTCHAR 0056
ENCODING 86
SWIDTH 526 0
DWIDTH 20 0
BBX 18 30 1 0
BITMAP
FC07C0
FC0FC0
FC0FC0
7C0F80
7C0F80
7E0F80
7E0F80
3E1F80
3E1F00
3E1F00
3E1F00
3F1F00
1F1E00
1F3E00
1F3E00
1F3E00
1FBE00
0FBC00
0FBC00
0FFC00
0FFC00
07FC00
07F800
07F800
07F800
07F800
03F800
03F000
03F000
03F000
ENDCHAR
STARTCHAR 0057
ENCODING 87
SWIDTH 868 0
DWIDTH 33 0
BBX 31 30 1 0
BITMAP
FC07C07E
FC0FE07E
FC0FE07C
7C0FE07C
7C0FE07C
7E0FE07C
7E0FF0FC
3E0FF0F8
3E1FF0F8
3E1FF0F8
3F1FF0F8
3F1FF0F8
1F1FF9F0
1F1EF9F0
1F3EF9F0
1FBEF9F0
0FBEF9E0
0FBEFDE0
0FBC7FE0
0FBC7FE0
0FFC7FE0
07FC7FC0
07FC3FC0
07F83FC0
07F83FC0
03F83FC0
03F83F80
03F01F80
03F01F80
03F01F80
ENDCHAR
STARTCHAR 0058
ENCODING 88
SWIDTH 578 0
DWIDTH 22 0
BBX 18 30 2 0
BITMAP
F80FC0
FC0F80
7C1F80
7E1F00
3E1F00
3E3F00
3F3E00
1F7E00
1FFC00
0FFC00
0FF800
07F800
07F800
07F000
03F000
03F000
07F000
07F800
07F800
0FF800
0FFC00
1FFC00
1F7E00
3F3E00
3E3F00
3E1F00
7E1F00
7C1F80
FC0F80
F80FC0
ENDCHAR
STARTCHAR 0059
ENCODING 89
SWIDTH 578 0
DWIDTH 22 0
BBX 17 30 2 0
BITMAP
F80F80
F80F80
F80F80
F80F80
F80F80
F80F80
F80F80
F80F80
F80F80
F80F80
F80F80
F80F80
F80F80
FC1F80
FFFF80
FFFF00
7FFF00
3FFC00
03E000
03E000
03E000
03E000
03E000
03E000
03E000
03E000
03E000
03E000
03E000
03E000
ENDCHAR
STARTCHAR 005A
ENCODING 90
SWIDTH 473 0
DWIDTH 18 0
BBX 16 30 1 0
BITMAP
FFFF
FFFF
FFFF
FFFF
003F
003E
007E
007C
007C
00F8
00F8
01F0
01F0
03F0
03E0
07E0
07C0
0FC0
0F80
1F80
1F00
3F00
3E00
7E00
7C00
FC00
FFFF
FFFF
FFFF
FFFF
ENDCHAR
STARTCHAR 005B
ENCODING 91
SWIDTH 289 0
DWIDTH 11 0
BBX 8 30 3 0
BITMAP
FF
FF
F8
F8
F8
F8
F8
F8
F8
F8
F8
F8
F8
F8
F8
F8
F8
F8
F8
F8
F8
F8
F8
F8
F8
F8
F8
F8
FF
FF
ENDCHAR
STARTCHAR 005C
ENCODING 92
SWIDTH 289 0
DWIDTH 11 0
BBX 11 30 0 0
BITMAP
E000
6000
7000
7000
7000
3000
3800
3800
3800
1800
1C00
1C00
1C00
0E00
0E00
0E00
0E00
0700
0700
0700
0300
0380
0380
0380
0180
01C0
01C0
01C0
00C0
00E0
ENDCHAR
STARTCHAR 005D
ENCODING 93
SWIDTH 289 0
DWIDTH 11 0
BBX 8 30 1 0
BITMAP
FF
FF
1F
1F
1F
1F
1F
1F
1F
1F
1F
1F
1F
1F
1F
1F
1F
1F
1F
1F
1F
1F
1F
1F
1F
1F
1F
1F
FF
FF
ENDCHAR
STARTCHAR 005E
ENCODING 94
SWIDTH 342 0
DWIDTH 13 0
BBX 11 6 1 23
BITMAP
1F00
1F80
3F80
7BC0
71E0
E0E0
ENDCHAR
STARTCHAR 005F
ENCODING 95
SWIDTH 578 0
DWIDTH 22 0
BBX 22 2 0 -5
BITMAP
FFFFFC
FFFFFC
ENDCHAR
STARTCHAR 0060
ENCODING 96
SWIDTH 236 0
DWIDTH 9 0
BBX 7 6 1 23
BITMAP
F8
F8
7C
3C
3C
1E
ENDCHAR
STARTCHAR 0061
ENCODING 97
SWIDTH 605 0
DWIDTH 23 0
BBX 17 22 3 0
BITMAP
1FFC00
7FFE00
7FFF00
FC1F80
F80F80
F80F80
F80F80
F80F80
F80F80
F80F80
FFFF80
FFFF80
FFFF80
F80F80
F80F80
F80F80
F80F80
F80F80
F80F80
F80F80
F80F80
F80F80
ENDCHAR
STARTCHAR 0062
ENCODING 98
SWIDTH 578 0
DWIDTH 22 0
BBX 17 22 3 0
BITMAP
1FFC00
7FFF00
7FFF00
FC1F80
F80F80
F80F80
F80F80
F80F80
F81F80
FFFF00
FFFC00
FFFF00
F81F80
F80F80
F80F80
F80F80
F80F80
F80F80
F81F80
FFFF80
FFFF00
FFFE00
ENDCHAR
STARTCHAR 0063
ENCODING 99
SWIDTH 526 0
DWIDTH 20 0
BBX 15 22 2 0
BITMAP
1FFE
7FFE
7FFE
FC00
F800
F800
F800
F800
F800
F800
F800
F800
F800
F800
F800
F800
F800
F800
FC00
7FFE
7FFE
3FFE
ENDCHAR
STARTCHAR 0064
ENCODING 100
SWIDTH 578 0
DWIDTH 22 0
BBX 17 22 3 0
BITMAP
FFFE00
FFFF00
FFFF00
F83F80
F80F80
F80F80
F80F80
F80F80
F80F80
F80F80
F80F80
F80F80
F80F80
F80F80
F80F80
F80F80
F80F80
F80F80
F81F80
FFFF00
FFFF00
FFFE00
ENDCHAR
STARTCHAR 0065
ENCODING 101
SWIDTH 526 0
DWIDTH 20 0
BBX 15 22 2 0
BITMAP
1FFE
7FFE
7FFE
FC00
F800
F800
F800
F800
F800
FFF8
FFF8
FFF8
F800
F800
F800
F800
F800
F800
FC00
7FFE
7FFE
3FFE
ENDCHAR
STARTCHAR 0066
ENCODING 102
SWIDTH 526 0
DWIDTH 20 0
BBX 15 22 2 0
BITMAP
1FFE
7FFE
7FFE
FC00
F800
F800
F800
F800
F800
FFF8
FFF8
FFF8
F800
F800
F800
F800
F800
F800
F800
F800
F800
F800
ENDCHAR
STARTCHAR 0067
ENCODING 103
SWIDTH 578 0
DWIDTH 22 0
BBX 18 22 2 0
BITMAP
1FFF00
7FFF00
7FFF00
7E0000
F80000
F80000
F80000
F80000
F80000
F80000
F87FC0
F87FC0
F87FC0
F807C0
F807C0
F807C0
F807C0
FC0FC0
FE1FC0
7FFFC0
7FFBC0
1FF040
ENDCHAR
STARTCHAR 0068
ENCODING 104
SWIDTH 605 0
DWIDTH 23 0
BBX 17 22 3 0
BITMAP
F80F80
F80F80
F80F80
F80F80
F80F80
F80F80
F80F80
F80F80
F80F80
FFFF80
FFFF80
FFFF80
F80F80
F80F80
F80F80
F80F80
F80F80
F80F80
F80F80
F80F80
F80F80
F80F80
ENDCHAR
STARTCHAR 0069
ENCODING 105
SWIDTH 289 0
DWIDTH 11 0
BBX 5 22 3 0
BITMAP
F8
F8
F8
F8
F8
F8
F8
F8
F8
F8
F8
F8
F8
F8
F8
F8
F8
F8
F8
F8
F8
F8
ENDCHAR
STARTCHAR 006A
ENCODING 106
SWIDTH 552 0
DWIDTH 21 0
BBX 15 22 1 0
BITMAP
003E
003E
003E
003E
003E
003E
003E
003E
003E
003E
003E
003E
003E
003E
003E
003E
003E
003E
007E
FFFC
FFFC
FFF8
ENDCHAR
STARTCHAR 006B
ENCODING 107
SWIDTH 578 0
DWIDTH 22 0
BBX 17 22 3 0
BITMAP
F80F00
F81F00
F83E00
F87C00
F87C00
F8F800
F9F000
FBF000
FFE000
FFFC00
FFFF00
FFFF00
F81F80
F80F80
F80F80
F80F80
F80F80
F80F80
F80F80
F80F80
F80F80
F80F80
ENDCHAR
STARTCHAR 006C
ENCODING 108
SWIDTH 500 0
DWIDTH 19 0
BBX 15 22 3 0
BITMAP
F800
F800
F800
F800
F800
F800
F800
F800
F800
F800
F800
F800
F800
F800
F800
F800
F800
F800
FC00
7FFE
7FFE
3FFE
ENDCHAR
STARTCHAR 006D
ENCODING 109
SWIDTH 947 0
DWIDTH 36 0
BBX 30 22 3 0
BITMAP
0FFFFFC0
7FFFFFF0
7FFFFFF8
FC1FC0FC
F80F807C
F80F807C
F80F807C
F80F807C
F80F807C
F80F807C
F80F807C
F80F807C
F80F807C
F80F807C
F80F807C
F80F807C
F80F807C
F80F807C
F80F807C
F80F807C
F80F807C
F80F807C
ENDCHAR
STARTCHAR 006E
ENCODING 110
SWIDTH 605 0
DWIDTH 23 0
BBX 17 22 3 0
BITMAP
1FFC00
7FFE00
7FFF00
FC1F80
F80F80
F80F80
F80F80
F80F80
F80F80
F80F80
F80F80
F80F80
F80F80
F80F80
F80F80
F80F80
F80F80
F80F80
F80F80
F80F80
F80F80
F80F80
ENDCHAR
STARTCHAR 006F
ENCODING 111
SWIDTH 605 0
DWIDTH 23 0
BBX 18 22 2 0
BITMAP
0FFC00
3FFF00
7FFF80
FC0FC0
F807C0
F807C0
F807C0
F807C0
F807C0
F807C0
F807C0
F807C0
F807C0
F807C0
F807C0
F807C0
F807C0
FC07C0
FE0FC0
7FFF80
7FFF00
1FFC00
ENDCHAR
STARTCHAR 0070
ENCODING 112
SWIDTH 552 0
DWIDTH 21 0
BBX 17 22 3 0
BITMAP
1FF800
7FFE00
7FFF00
FC1F80
F80F80
F80F80
F80F80
F80F80
F80F80
F80F80
F81F80
FFFF80
FFFF00
FFFE00
F80000
F80000
F80000
F80000
F80000
F80000
F80000
F80000
ENDCHAR
STARTCHAR 0071
ENCODING 113
SWIDTH 605 0
DWIDTH 23 0
BBX 18 25 2 -3
BITMAP
0FFC00
3FFF00
7FFF80
FC0FC0
F807C0
F807C0
F807C0
F807C0
F807C0
F807C0
F807C0
F807C0
F807C0
F807C0
F807C0
F807C0
F807C0
FC07C0
FC0FC0
7FFF80
7FFF80
1FFE00
01F000
01F000
01F000
ENDCHAR
STARTCHAR 0072
ENCODING 114
SWIDTH 578 0
DWIDTH 22 0
BBX 17 22 3 0
BITMAP
1FFC00
7FFF00
7FFF00
FC1F80
F80F80
F80F80
F80F80
F80F80
F81F80
FFFF00
FFFC00
FFFF00
F81F80
F80F80
F80F80
F80F80
F80F80
F80F80
F80F80
F80F80
F80F80
F80F80
ENDCHAR
STARTCHAR 0073
ENCODING 115
SWIDTH 578 0
DWIDTH 22 0
BBX 17 22 2 0
BITMAP
1FFE00
7FFE00
7FFE00
FC0000
F80000
F80000
F80000
F80000
FC0000
FFFC00
7FFF00
1FFF80
001F80
000F80
000F80
000F80
000F80
000F80
001F80
3FFF00
3FFF00
3FFC00
ENDCHAR
STARTCHAR 0074
ENCODING 116
SWIDTH 447 0
DWIDTH 17 0
BBX 15 22 1 0
BITMAP
FFFE
FFFE
FFFE
07C0
07C0
07C0
07C0
07C0
07C0
07C0
07C0
07C0
07C0
07C0
07C0
07C0
07C0
07C0
07C0
07C0
07C0
07C0
ENDCHAR
STARTCHAR 0075
ENCODING 117
SWIDTH 605 0
DWIDTH 23 0
BBX 17 22 3 0
BITMAP
F80F80
F80F80
F80F80
F80F80
F80F80
F80F80
F80F80
F80F80
F80F80
F80F80
F80F80
F80F80
F80F80
F80F80
F80F80
F80F80
F80F80
F80F80
FC1F80
FFFF80
7FFF00
1FFC00
ENDCHAR
STARTCHAR 0076
ENCODING 118
SWIDTH 526 0
DWIDTH 20 0
BBX 18 22 1 0
BITMAP
FC07C0
FC0FC0
7C0F80
7C0F80
7E0F80
3E1F80
3E1F00
3E1F00
3F1F00
1F1E00
1F3E00
1FBE00
0FBE00
0FBC00
0FFC00
0FFC00
07F800
07F800
07F800
03F800
03F000
03F000
ENDCHAR
STARTCHAR 0077
ENCODING 119
SWIDTH 868 0
DWIDTH 33 0
BBX 31 22 1 0
BITMAP
FC07C07E
FC0FE07C
7C0FE07C
7C0FE07C
7E0FE07C
3E0FF0F8
3E1FF0F8
3E1FF0F8
3F1FF8F0
1F1FF9F0
1F3EF9F0
1FBEF9F0
0FBEFDE0
0FBC7FE0
0FBC7FE0
07FC7FE0
07FC3FC0
07F83FC0
07F83FC0
03F83F80
03F01F80
03F01F80
ENDCHAR
STARTCHAR 0078
ENCODING 120
SWIDTH 578 0
DWIDTH 22 0
BBX 18 22 2 0
BITMAP
F80FC0
7C0F80
7E1F00
3E3F00
3F3E00
1F7E00
1FFC00
0FFC00
07F800
07F000
03F000
03F000
07F000
07F800
0FFC00
1FFC00
1F7E00
3F3E00
3E3F00
7E1F00
7C0F80
F80FC0
ENDCHAR
STARTCHAR 0079
ENCODING 121
SWIDTH 578 0
DWIDTH 22 0
BBX 17 22 2 0
BITMAP
F80F80
F80F80
F80F80
F80F80
F80F80
F80F80
F80F80
F80F80
F80F80
FC1F80
FFFF80
7FFF00
3FFE00
03E000
03E000
03E000
03E000
03E000
03E000
03E000
03E000
03E000
ENDCHAR
STARTCHAR 007A
ENCODING 122
SWIDTH 473 0
DWIDTH 18 0
BBX 16 22 1 0
BITMAP
FFFF
FFFF
FFFF
003F
003E
007C
00FC
00F8
01F0
03F0
03E0
07C0
0FC0
0F80
1F80
3F00
3E00
7E00
FC00
FFFF
FFFF
FFFF
ENDCHAR
STARTCHAR 007B
ENCODING 123
SWIDTH 289 0
DWIDTH 11 0
BBX 11 30 0 0
BITMAP
1FE0
1FE0
1F00
1F00
1F00
1F00
1F00
1F00
1F00
1F00
1F00
1F00
3F00
FF00
3F00
3F00
1F00
1F00
1F00
1F00
1F00
1F00
1F00
1F00
1F00
1F00
1F00
1F00
1FE0
1FE0
ENDCHAR
STARTCHAR 007C
ENCODING 124
SWIDTH 263 0
DWIDTH 10 0
BBX 5 37 3 -4
BITMAP
F8
F8
F8
F8
F8
F8
F8
F8
F8
F8
F8
F8
F8
F8
F8
F8
F8
F8
F8
F8
F8
F8
F8
F8
F8
F8
F8
F8
F8
F8
F8
F8
F8
F8
F8
F8
F8
ENDCHAR
STARTCHAR 007D
ENCODING 125
SWIDTH 289 0
DWIDTH 11 0
BBX 11 30 1 0
BITMAP
FF00
FF00
1F00
1F00
1F00
1F00
1F00
1F00
1F00
1F00
1F00
1F00
1F80
1FE0
1F80
1F80
1F00
1F00
1F00
1F00
1F00
1F00
1F00
1F00
1F00
1F00
1F00
1F00
FF00
FF00
ENDCHAR
STARTCHAR 007E
ENCODING 126
SWIDTH 394 0
DWIDTH 15 0
BBX 14 4 0 24
BITMAP
1E0C
3FFC
7FF8
FFF0
ENDCHAR
STARTCHAR 00A0
ENCODING 160
SWIDTH 605 0
DWIDTH 23 0
BBX 0 0 0 0
BITMAP
ENDCHAR
STARTCHAR 00A1
ENCODING 161
SWIDTH 289 0
DWIDTH 11 0
BBX 6 30 2 -1
BITMAP
FC
FC
FC
FC
FC
00
00
FC
FC
FC
FC
FC
FC
FC
FC
FC
FC
FC
FC
FC
FC
FC
FC
FC
FC
FC
FC
FC
FC
FC
ENDCHAR
STARTCHAR 00A2
ENCODING 162
SWIDTH 605 0
DWIDTH 23 0
BBX 14 25 4 2
BITMAP
01C0
01C0
01C0
1FFC
7FFC
7FFC
FC00
F800
F800
F800
F800
F800
F800
F800
F800
F800
F800
F800
FC00
FFFC
7FFC
3FFC
01C0
01C0
01C0
ENDCHAR
STARTCHAR 00A3
ENCODING 163
SWIDTH 842 0
DWIDTH 32 0
BBX 28 30 2 0
BITMAP
0001FF80
0007FFE0
000FFFF0
001FFFF0
003F87F0
003F03F0
003E03F0
007E03F0
007E03F0
007C03F0
007C0000
00FC0000
00FC0000
0FFFC000
0FFFC000
1FFF8000
1FFF8000
01F80000
01F00000
01F00000
03F00000
03F00000
03E00000
03E00000
03E00000
07E00000
FFFFFC00
FFFFFC00
FFFFFC00
FFFFFC00
ENDCHAR
STARTCHAR 00A4
ENCODING 164
SWIDTH 552 0
DWIDTH 21 0
BBX 13 18 4 11
BITMAP
7070
38E0
3DE0
3FE0
7FF0
FFF8
FFF8
E018
C018
C018
C018
E038
FFF8
7FF0
7FF0
3DE0
38E0
7070
ENDCHAR
STARTCHAR 00A5
ENCODING 165
SWIDTH 578 0
DWIDTH 22 0
BBX 17 30 2 0
BITMAP
F80F80
F80F80
F80F80
F80F80
F80F80
F80F80
F80F80
F80F80
F80F80
FC1F80
FFFF80
7FFF00
7FFF00
3FFC00
03E000
FFFF80
FFFF80
FFFF80
03E000
03E000
FFFF80
FFFF80
FFFF80
03E000
03E000
03E000
03E000
03E000
03E000
03E000
ENDCHAR
STARTCHAR 00A7
ENCODING 167
SWIDTH 657 0
DWIDTH 25 0
BBX 19 30 3 0
BITMAP
00FFE0
03FFE0
07FFE0
07FFE0
0FC000
0F0000
1F0000
1E0000
1E0000
3FFF80
3FFFC0
3FFFC0
3FFFC0
7C0FC0
780FC0
7C0FC0
7C0FC0
7FFF80
7FFF80
7FFF80
3FFF80
001F00
003F00
003F00
007E00
01FE00
FFFC00
FFFC00
FFF800
FFF000
ENDCHAR
STARTCHAR 00A8
ENCODING 168
SWIDTH 342 0
DWIDTH 13 0
BBX 12 5 0 24
BITMAP
F9F0
F9F0
F9F0
F9F0
F9F0
ENDCHAR
STARTCHAR 00A9
ENCODING 169
SWIDTH 500 0
DWIDTH 19 0
BBX 17 18 1 12
BITMAP
1FFC00
7F7F00
400100
87F180
87F080
8E0080
8E0080
8E0080
8E0080
8E0080
8E0080
8E0080
8E0080
87F080
C7F080
400100
300700
0FFC00
ENDCHAR
STARTCHAR 00AB
ENCODING 171
SWIDTH 394 0
DWIDTH 15 0
BBX 13 14 1 4
BITMAP
1C70
1C70
38E0
38E0
71C0
71C0
E380
71C0
71C0
38E0
38E0
1C70
1C70
0E38
ENDCHAR
STARTCHAR 00AC
ENCODING 172
SWIDTH 789 0
DWIDTH 30 0
BBX 23 9 3 4
BITMAP
FFFFFE
FFFFFE
FFFFFE
FFFFFE
FFFFFE
00001E
00001E
00001E
00001E
ENDCHAR
STARTCHAR 00AE
ENCODING 174
SWIDTH 500 0
DWIDTH 19 0
BBX 17 18 1 12
BITMAP
1FFC00
7F7F00
400100
87F180
8FF880
8E3880
8E3880
8E3880
8E3880
8FF080
8E3880
8E3880
8E3880
8E3880
CE3880
400100
300700
0FFC00
ENDCHAR
STARTCHAR 00AF
ENCODING 175
SWIDTH 342 0
DWIDTH 13 0
BBX 12 3 0 25
BITMAP
FFF0
FFF0
FFF0
ENDCHAR
STARTCHAR 00B0
ENCODING 176
SWIDTH 605 0
DWIDTH 23 0
BBX 11 11 6 19
BITMAP
1F00
3F80
7FC0
F1E0
E0E0
E0E0
E0E0
F1E0
7FC0
3F80
0E00
ENDCHAR
STARTCHAR 00B1
ENCODING 177
SWIDTH 605 0
DWIDTH 23 0
BBX 19 29 2 1
BITMAP
01F000
01F000
01F000
01F000
01F000
01F000
01F000
7FFFE0
FFFFE0
FFFFE0
FFFFE0
FFFFE0
FFFFE0
01F000
01F000
01F000
01F000
01F000
01F000
01F000
000000
000000
000000
3FFF80
FFFFE0
FFFFE0
FFFFE0
FFFFE0
FFFFE0
ENDCHAR
STARTCHAR 00B4
ENCODING 180
SWIDTH 236 0
DWIDTH 9 0
BBX 7 6 1 23
BITMAP
3E
3C
7C
78
F0
F0
ENDCHAR
STARTCHAR 00B5
ENCODING 181
SWIDTH 605 0
DWIDTH 23 0
BBX 17 30 2 0
BITMAP
0FFF80
3FFF80
7FFF80
7FFF80
FE0000
F80000
F80000
F80000
F80000
F80000
F80000
F80000
F80F80
F80F80
FC0F80
FE1F80
FFFF80
7FFF80
3FFF80
1FCF80
000F80
000F80
000F80
000F80
000F80
003F80
3FFF00
3FFF00
3FFE00
3FF800
ENDCHAR
STARTCHAR 00B6
ENCODING 182
SWIDTH 605 0
DWIDTH 23 0
BBX 16 35 3 -6
BITMAP
0FF0
7FFC
FFFE
FFFE
FFFF
FFFF
FFFF
FFFF
FFFF
FFFF
FFFF
FFFF
FFFF
7FFF
3FFF
07FF
001F
001F
001F
001F
001F
001F
001F
001F
001F
001F
001F
001F
001F
001F
001F
001F
001F
001F
001F
ENDCHAR
STARTCHAR 00B7
ENCODING 183
SWIDTH 289 0
DWIDTH 11 0
BBX 6 6 2 13
BITMAP
7C
FC
FC
FC
FC
78
ENDCHAR
STARTCHAR 00B8
ENCODING 184
SWIDTH 289 0
DWIDTH 11 0
BBX 8 8 1 -8
BITMAP
18
18
1C
3F
07
07
FE
FC
ENDCHAR
STARTCHAR 00BB
ENCODING 187
SWIDTH 394 0
DWIDTH 15 0
BBX 13 14 1 4
BITMAP
E380
71C0
71C0
38E0
38E0
1C70
1C70
1E78
1C70
38E0
38E0
71C0
71C0
E380
ENDCHAR
STARTCHAR 00BF
ENCODING 191
SWIDTH 605 0
DWIDTH 23 0
BBX 15 30 2 0
BITMAP
003E
003E
003E
003E
003E
0008
0000
003E
003E
003E
003E
003E
007E
00FE
1FFE
3FFC
7FFC
FFF0
FE00
FC00
F800
F800
F800
F800
F800
FE00
7FFE
7FFE
3FFE
0FFE
ENDCHAR
STARTCHAR 00C0
ENCODING 192
SWIDTH 605 0
DWIDTH 23 0
BBX 17 37 3 0
BITMAP
1F0000
0F0000
0F8000
078000
03C000
03C000
000000
0FF800
3FFE00
7FFF00
7FFF00
FC1F80
F81F80
F80F80
F80F80
F80F80
F80F80
F80F80
F80F80
F80F80
F80F80
FFFF80
FFFF80
FFFF80
FFFF80
F80F80
F80F80
F80F80
F80F80
F80F80
F80F80
F80F80
F80F80
F80F80
F80F80
F80F80
F80F80
ENDCHAR
STARTCHAR 00C1
ENCODING 193
SWIDTH 605 0
DWIDTH 23 0
BBX 17 37 3 0
BITMAP
007C00
007C00
007800
00F000
00F000
01E000
000000
0FF800
3FFE00
7FFF00
7FFF00
FC1F80
F81F80
F80F80
F80F80
F80F80
F80F80
F80F80
F80F80
F80F80
F80F80
FFFF80
FFFF80
FFFF80
FFFF80
F80F80
F80F80
F80F80
F80F80
F80F80
F80F80
F80F80
F80F80
F80F80
F80F80
F80F80
F80F80
ENDCHAR
STARTCHAR 00C2
ENCODING 194
SWIDTH 605 0
DWIDTH 23 0
BBX 17 38 3 0
BITMAP
03E000
07E000
07F000
0FF000
0E7800
1C3C00
381C00
000000
0FF800
3FFE00
7FFF00
7FFF00
FC1F80
F81F80
F80F80
F80F80
F80F80
F80F80
F80F80
F80F80
F80F80
F80F80
FFFF80
FFFF80
FFFF80
FFFF80
F80F80
F80F80
F80F80
F80F80
F80F80
F80F80
F80F80
F80F80
F80F80
F80F80
F80F80
F80F80
ENDCHAR
STARTCHAR 00C3
ENCODING 195
SWIDTH 605 0
DWIDTH 23 0
BBX 17 37 3 0
BITMAP
0F8600
1FFC00
3FFC00
3FF800
002000
000000
000000
0FF800
3FFE00
7FFF00
7FFF00
FC1F80
F81F80
F80F80
F80F80
F80F80
F80F80
F80F80
F80F80
F80F80
F80F80
FFFF80
FFFF80
FFFF80
FFFF80
F80F80
F80F80
F80F80
F80F80
F80F80
F80F80
F80F80
F80F80
F80F80
F80F80
F80F80
F80F80
ENDCHAR
STARTCHAR 00C4
ENCODING 196
SWIDTH 605 0
DWIDTH 23 0
BBX 17 37 3 0
BITMAP
3E7C00
3E7C00
3E7C00
3E7C00
3E7C00
000000
000000
0FF800
3FFE00
7FFF00
7FFF00
FC1F80
F81F80
F80F80
F80F80
F80F80
F80F80
F80F80
F80F80
F80F80
F80F80
FFFF80
FFFF80
FFFF80
FFFF80
F80F80
F80F80
F80F80
F80F80
F80F80
F80F80
F80F80
F80F80
F80F80
F80F80
F80F80
F80F80
ENDCHAR
STARTCHAR 00C5
ENCODING 197
SWIDTH 605 0
DWIDTH 23 0
BBX 17 38 3 0
BITMAP
01C000
03E000
063000
063000
063000
03E000
01C000
000000
0FF800
3FFE00
7FFF00
7FFF00
FC1F80
F81F80
F80F80
F80F80
F80F80
F80F80
F80F80
F80F80
F80F80
F80F80
FFFF80
FFFF80
FFFF80
FFFF80
F80F80
F80F80
F80F80
F80F80
F80F80
F80F80
F80F80
F80F80
F80F80
F80F80
F80F80
F80F80
ENDCHAR
STARTCHAR 00C6
ENCODING 198
SWIDTH 868 0
DWIDTH 33 0
BBX 27 30 3 0
BITMAP
0FFFFFE0
3FFFFFE0
7FFFFFE0
7FFFFFE0
FE3FE000
FC1FC000
F80F8000
F80F8000
F80F8000
F80F8000
F80F8000
F80F8000
FFFFFF80
FFFFFF80
FFFFFF80
FFFFFF80
F80F8000
F80F8000
F80F8000
F80F8000
F80F8000
F80F8000
F80F8000
F80F8000
F80FC000
F80FF000
F807FFE0
F807FFE0
F807FFE0
F801FFE0
ENDCHAR
STARTCHAR 00C7
ENCODING 199
SWIDTH 526 0
DWIDTH 20 0
BBX 15 38 2 -8
BITMAP
1FFE
3FFE
7FFE
7FFE
7E00
FC00
F800
F800
F800
F800
F800
F800
F800
F800
F800
F800
F800
F800
F800
F800
F800
F800
F800
FC00
FC00
FFFE
7FFE
7FFE
3FFE
0FFE
00C0
00F0
01F8
0038
0038
0038
07F0
03C0
ENDCHAR
STARTCHAR 00C8
ENCODING 200
SWIDTH 526 0
DWIDTH 20 0
BBX 15 37 2 0
BITMAP
1F00
0F00
0F80
0780
03C0
03C0
0000
1FFE
3FFE
7FFE
7FFE
7E00
FC00
F800
F800
F800
F800
F800
F800
FFF8
FFF8
FFF8
FFF8
F800
F800
F800
F800
F800
F800
F800
F800
FC00
FF00
7FFE
7FFE
7FFE
3FFE
ENDCHAR
STARTCHAR 00C9
ENCODING 201
SWIDTH 526 0
DWIDTH 20 0
BBX 15 37 2 0
BITMAP
007C
00F8
00F0
01F0
01E0
03C0
0000
1FFE
3FFE
7FFE
7FFE
7E00
FC00
F800
F800
F800
F800
F800
F800
FFF8
FFF8
FFF8
FFF8
F800
F800
F800
F800
F800
F800
F800
F800
FC00
FF00
7FFE
7FFE
7FFE
3FFE
ENDCHAR
STARTCHAR 00CA
ENCODING 202
SWIDTH 526 0
DWIDTH 20 0
BBX 15 38 2 0
BITMAP
03E0
03F0
07F0
07F8
0F3C
1E1C
0000
0000
1FFE
3FFE
7FFE
7FFE
7E00
FC00
F800
F800
F800
F800
F800
F800
FFF8
FFF8
FFF8
FFF8
F800
F800
F800
F800
F800
F800
F800
F800
FC00
FF00
7FFE
7FFE
7FFE
3FFE
ENDCHAR
STARTCHAR 00CB
ENCODING 203
SWIDTH 526 0
DWIDTH 20 0
BBX 15 36 2 0
BITMAP
1F3E
1F3E
1F3E
1F3E
1F3E
0000
1FFE
3FFE
7FFE
7FFE
7E00
FC00
F800
F800
F800
F800
F800
F800
FFF8
FFF8
FFF8
FFF8
F800
F800
F800
F800
F800
F800
F800
F800
FC00
FE00
7FFE
7FFE
7FFE
3FFE
ENDCHAR
STARTCHAR 00CC
ENCODING 204
SWIDTH 289 0
DWIDTH 11 0
BBX 7 37 3 0
BITMAP
F8
78
7C
3C
1E
1E
00
F8
F8
F8
F8
F8
F8
F8
F8
F8
F8
F8
F8
F8
F8
F8
F8
F8
F8
F8
F8
F8
F8
F8
F8
F8
F8
F8
F8
F8
F8
ENDCHAR
STARTCHAR 00CD
ENCODING 205
SWIDTH 289 0
DWIDTH 11 0
BBX 8 37 3 0
BITMAP
1F
1E
3C
3C
78
70
00
F8
F8
F8
F8
F8
F8
F8
F8
F8
F8
F8
F8
F8
F8
F8
F8
F8
F8
F8
F8
F8
F8
F8
F8
F8
F8
F8
F8
F8
F8
ENDCHAR
STARTCHAR 00CE
ENCODING 206
SWIDTH 289 0
DWIDTH 11 0
BBX 11 38 3 0
BITMAP
1F00
1F80
3F80
3BC0
79E0
F0E0
0000
0000
F800
F800
F800
F800
F800
F800
F800
F800
F800
F800
F800
F800
F800
F800
F800
F800
F800
F800
F800
F800
F800
F800
F800
F800
F800
F800
F800
F800
F800
F800
ENDCHAR
STARTCHAR 00CF
ENCODING 207
SWIDTH 289 0
DWIDTH 11 0
BBX 12 36 2 0
BITMAP
F9F0
F9F0
F9F0
F9F0
F9F0
0000
F800
F800
F800
F800
F800
F800
F800
F800
F800
F800
F800
F800
F800
F800
F800
F800
F800
F800
F800
F800
F800
F800
F800
F800
F800
F800
F800
F800
F800
F800
ENDCHAR
STARTCHAR 00D1
ENCODING 209
SWIDTH 578 0
DWIDTH 22 0
BBX 17 37 3 0
BITMAP
0F0600
1FFC00
3FFC00
3FF800
002000
000000
000000
0FF800
3FFE00
7FFF00
7FFF00
FC1F80
F81F80
F80F80
F80F80
F80F80
F80F80
F80F80
F80F80
F80F80
F80F80
F80F80
F80F80
F80F80
F80F80
F80F80
F80F80
F80F80
F80F80
F80F80
F80F80
F80F80
F80F80
F80F80
F80F80
F80F80
F80F80
ENDCHAR
STARTCHAR 00D2
ENCODING 210
SWIDTH 605 0
DWIDTH 23 0
BBX 18 37 2 0
BITMAP
1F0000
0F8000
078000
07C000
03C000
01E000
000000
0FFC00
3FFF00
7FFF80
7FFF80
FE1FC0
FC0FC0
F807C0
F807C0
F807C0
F807C0
F807C0
F807C0
F807C0
F807C0
F807C0
F807C0
F807C0
F807C0
F807C0
F807C0
F807C0
F807C0
F807C0
F807C0
FC0FC0
FE1FC0
7FFF80
7FFF80
3FFF00
0FFC00
ENDCHAR
STARTCHAR 00D3
ENCODING 211
SWIDTH 605 0
DWIDTH 23 0
BBX 18 37 2 0
BITMAP
007C00
007800
00F800
00F000
01E000
01E000
000000
0FFC00
3FFF00
7FFF80
7FFF80
FE1FC0
FC0FC0
F807C0
F807C0
F807C0
F807C0
F807C0
F807C0
F807C0
F807C0
F807C0
F807C0
F807C0
F807C0
F807C0
F807C0
F807C0
F807C0
F807C0
F807C0
FC0FC0
FE1FC0
7FFF80
7FFF80
3FFF00
0FFC00
ENDCHAR
STARTCHAR 00D4
ENCODING 212
SWIDTH 605 0
DWIDTH 23 0
BBX 18 38 2 0
BITMAP
01E000
03F000
07F000
07F800
0F3C00
0E1C00
1C0E00
000000
0FFC00
3FFF00
7FFF80
7FFF80
FE1FC0
FC0FC0
F807C0
F807C0
F807C0
F807C0
F807C0
F807C0
F807C0
F807C0
F807C0
F807C0
F807C0
F807C0
F807C0
F807C0
F807C0
F807C0
F807C0
F807C0
FC0FC0
FE1FC0
7FFF80
7FFF80
3FFF00
0FFC00
ENDCHAR
STARTCHAR 00D5
ENCODING 213
SWIDTH 605 0
DWIDTH 23 0
BBX 18 37 2 0
BITMAP
078600
1FFE00
1FFC00
3FF800
002000
000000
000000
0FFC00
3FFF00
7FFF80
7FFF80
FE1FC0
FC0FC0
F807C0
F807C0
F807C0
F807C0
F807C0
F807C0
F807C0
F807C0
F807C0
F807C0
F807C0
F807C0
F807C0
F807C0
F807C0
F807C0
F807C0
F807C0
FC0FC0
FE1FC0
7FFF80
7FFF80
3FFF00
0FFC00
ENDCHAR
STARTCHAR 00D6
ENCODING 214
SWIDTH 605 0
DWIDTH 23 0
BBX 18 37 2 0
BITMAP
1F3E00
1F3E00
1F3E00
1F3E00
1F3E00
000000
000000
0FFC00
3FFF00
7FFF80
7FFF80
FE1FC0
FC0FC0
F807C0
F807C0
F807C0
F807C0
F807C0
F807C0
F807C0
F807C0
F807C0
F807C0
F807C0
F807C0
F807C0
F807C0
F807C0
F807C0
F807C0
F807C0
FC0FC0
FE1FC0
7FFF80
7FFF80
3FFF00
0FFC00
ENDCHAR
STARTCHAR 00D8
ENCODING 216
SWIDTH 605 0
DWIDTH 23 0
BBX 18 39 2 -5
BITMAP
000380
000300
000700
000700
000700
0FFE00
3FFF00
7FFF80
7FFF80
FE1FC0
FC1FC0
F83FC0
F83FC0
F83FC0
F877C0
F877C0
F877C0
F8E7C0
F8E7C0
F8E7C0
F9C7C0
F9C7C0
F9C7C0
FB87C0
FB87C0
FB87C0
FF07C0
FF07C0
FF07C0
FE0FC0
FE1FC0
7FFF80
7FFF80
3FFF00
1FFC00
380000
380000
380000
700000
ENDCHAR
STARTCHAR 00D9
ENCODING 217
SWIDTH 605 0
DWIDTH 23 0
BBX 17 37 3 0
BITMAP
1F0000
0F8000
078000
078000
03C000
01C000
000000
F80F80
F80F80
F80F80
F80F80
F80F80
F80F80
F80F80
F80F80
F80F80
F80F80
F80F80
F80F80
F80F80
F80F80
F80F80
F80F80
F80F80
F80F80
F80F80
F80F80
F80F80
F80F80
F80F80
F80F80
F80F80
FC1F80
FFFF80
7FFF00
7FFE00
1FFC00
ENDCHAR
STARTCHAR 00DA
ENCODING 218
SWIDTH 605 0
DWIDTH 23 0
BBX 17 37 3 0
BITMAP
007C00
007800
00F800
00F000
01E000
01E000
000000
F80F80
F80F80
F80F80
F80F80
F80F80
F80F80
F80F80
F80F80
F80F80
F80F80
F80F80
F80F80
F80F80
F80F80
F80F80
F80F80
F80F80
F80F80
F80F80
F80F80
F80F80
F80F80
F80F80
F80F80
F80F80
FC1F80
FFFF80
7FFF00
7FFE00
1FFC00
ENDCHAR
STARTCHAR 00DB
ENCODING 219
SWIDTH 605 0
DWIDTH 23 0
BBX 17 38 3 0
BITMAP
03E000
03E000
07F000
0F7800
0E3800
1C1C00
000000
000000
F80F80
F80F80
F80F80
F80F80
F80F80
F80F80
F80F80
F80F80
F80F80
F80F80
F80F80
F80F80
F80F80
F80F80
F80F80
F80F80
F80F80
F80F80
F80F80
F80F80
F80F80
F80F80
F80F80
F80F80
F80F80
FC1F80
FFFF80
7FFF00
7FFE00
1FFC00
ENDCHAR
STARTCHAR 00DC
ENCODING 220
SWIDTH 605 0
DWIDTH 23 0
BBX 17 37 3 0
BITMAP
3E7C00
3E7C00
3E7C00
3E7C00
3E7C00
000000
000000
F80F80
F80F80
F80F80
F80F80
F80F80
F80F80
F80F80
F80F80
F80F80
F80F80
F80F80
F80F80
F80F80
F80F80
F80F80
F80F80
F80F80
F80F80
F80F80
F80F80
F80F80
F80F80
F80F80
F80F80
F80F80
FC1F80
FFFF80
7FFF00
7FFE00
1FFC00
ENDCHAR
STARTCHAR 00DD
ENCODING 221
SWIDTH 578 0
DWIDTH 22 0
BBX 0 0 0 0
BITMAP
ENDCHAR
STARTCHAR 00DF
ENCODING 223
SWIDTH 552 0
DWIDTH 21 0
BBX 16 34 3 -5
BITMAP
0FF0
3FFC
7FFE
7FFF
FC3F
F81F
F81F
F81F
F81F
F81F
F81F
F83F
F9FE
F9FC
F9FC
F9FE
F87F
F83F
F81F
F81F
F81F
F81F
F81F
F81F
F81F
F83F
F9FF
F9FE
F9FC
F9F0
F800
F800
F800
F800
ENDCHAR
STARTCHAR 00E0
ENCODING 224
SWIDTH 605 0
DWIDTH 23 0
BBX 17 30 3 0
BITMAP
1F0000
0F0000
0F8000
078000
07C000
03C000
000000
000000
1FFC00
7FFE00
7FFF00
FC1F80
F80F80
F80F80
F80F80
F80F80
F80F80
F80F80
FFFF80
FFFF80
FFFF80
F80F80
F80F80
F80F80
F80F80
F80F80
F80F80
F80F80
F80F80
F80F80
ENDCHAR
STARTCHAR 00E1
ENCODING 225
SWIDTH 605 0
DWIDTH 23 0
BBX 17 30 3 0
BITMAP
007C00
00F800
00F000
01F000
01E000
03C000
000000
000000
1FFC00
7FFE00
7FFF00
FC1F80
F80F80
F80F80
F80F80
F80F80
F80F80
F80F80
FFFF80
FFFF80
FFFF80
F80F80
F80F80
F80F80
F80F80
F80F80
F80F80
F80F80
F80F80
F80F80
ENDCHAR
STARTCHAR 00E2
ENCODING 226
SWIDTH 605 0
DWIDTH 23 0
BBX 17 30 3 0
BITMAP
03C000
07E000
0FF000
0FF000
1E7800
1C3800
381C00
000000
1FFC00
7FFE00
7FFF00
FC1F80
F80F80
F80F80
F80F80
F80F80
F80F80
F80F80
FFFF80
FFFF80
FFFF80
F80F80
F80F80
F80F80
F80F80
F80F80
F80F80
F80F80
F80F80
F80F80
ENDCHAR
STARTCHAR 00E3
ENCODING 227
SWIDTH 605 0
DWIDTH 23 0
BBX 17 29 3 0
BITMAP
0F0600
1FFC00
3FFC00
3FF800
000000
000000
000000
1FFC00
7FFE00
7FFF00
FC1F80
F80F80
F80F80
F80F80
F80F80
F80F80
F80F80
FFFF80
FFFF80
FFFF80
F80F80
F80F80
F80F80
F80F80
F80F80
F80F80
F80F80
F80F80
F80F80
ENDCHAR
STARTCHAR 00E4
ENCODING 228
SWIDTH 605 0
DWIDTH 23 0
BBX 17 29 3 0
BITMAP
3E7C00
3E7C00
3E7C00
3E7C00
3E7C00
000000
000000
1FFC00
7FFE00
7FFF00
FC1F80
F80F80
F80F80
F80F80
F80F80
F80F80
F80F80
FFFF80
FFFF80
FFFF80
F80F80
F80F80
F80F80
F80F80
F80F80
F80F80
F80F80
F80F80
F80F80
ENDCHAR
STARTCHAR 00E5
ENCODING 229
SWIDTH 605 0
DWIDTH 23 0
BBX 17 31 3 0
BITMAP
01C000
03E000
063000
063000
063000
03E000
01C000
000000
000000
1FFC00
7FFE00
7FFF00
FC1F80
F80F80
F80F80
F80F80
F80F80
F80F80
F80F80
FFFF80
FFFF80
FFFF80
F80F80
F80F80
F80F80
F80F80
F80F80
F80F80
F80F80
F80F80
F80F80
ENDCHAR
STARTCHAR 00E6
ENCODING 230
SWIDTH 868 0
DWIDTH 33 0
BBX 27 22 3 0
BITMAP
0FFFFFE0
7FFFFFE0
7FFFFFE0
FC1FC000
F80F8000
F80F8000
F80F8000
F80F8000
F80F8000
FFFFFF80
FFFFFF80
FFFFFF80
F80F8000
F80F8000
F80F8000
F80F8000
F80F8000
F80F8000
F80FC000
F807FFE0
F807FFE0
F803FFE0
ENDCHAR
STARTCHAR 00E7
ENCODING 231
SWIDTH 526 0
DWIDTH 20 0
BBX 15 30 2 -8
BITMAP
1FFE
7FFE
7FFE
FC00
F800
F800
F800
F800
F800
F800
F800
F800
F800
F800
F800
F800
F800
F800
FC00
7FFE
7FFE
3FFE
00C0
00C0
00F0
01F8
0038
0038
07F0
07E0
ENDCHAR
STARTCHAR 00E8
ENCODING 232
SWIDTH 526 0
DWIDTH 20 0
BBX 15 30 2 0
BITMAP
1F00
0F00
0F80
0780
07C0
03C0
0000
0000
1FFE
7FFE
7FFE
FC00
F800
F800
F800
F800
F800
FFF8
FFF8
FFF8
F800
F800
F800
F800
F800
F800
FC00
7FFE
7FFE
3FFE
ENDCHAR
STARTCHAR 00E9
ENCODING 233
SWIDTH 526 0
DWIDTH 20 0
BBX 15 30 2 0
BITMAP
00F8
00F8
01F0
01E0
01E0
03C0
0000
0000
1FFE
7FFE
7FFE
FC00
F800
F800
F800
F800
F800
FFF8
FFF8
FFF8
F800
F800
F800
F800
F800
F800
FC00
7FFE
7FFE
3FFE
ENDCHAR
STARTCHAR 00EA
ENCODING 234
SWIDTH 526 0
DWIDTH 20 0
BBX 15 30 2 0
BITMAP
03E0
03F0
07F0
0FF8
0E3C
1C1C
0000
0000
1FFE
7FFE
7FFE
FC00
F800
F800
F800
F800
F800
FFF8
FFF8
FFF8
F800
F800
F800
F800
F800
F800
FC00
7FFE
7FFE
3FFE
ENDCHAR
STARTCHAR 00EB
ENCODING 235
SWIDTH 526 0
DWIDTH 20 0
BBX 15 29 2 0
BITMAP
1F3E
1F3E
1F3E
1F3E
1F3E
0000
0000
1FFE
7FFE
7FFE
FC00
F800
F800
F800
F800
F800
FFF8
FFF8
FFF8
F800
F800
F800
F800
F800
F800
FE00
7FFE
7FFE
3FFE
ENDCHAR
STARTCHAR 00EC
ENCODING 236
SWIDTH 289 0
DWIDTH 11 0
BBX 7 30 3 0
BITMAP
F8
78
7C
3C
1E
1E
00
00
F8
F8
F8
F8
F8
F8
F8
F8
F8
F8
F8
F8
F8
F8
F8
F8
F8
F8
F8
F8
F8
F8
ENDCHAR
STARTCHAR 00ED
ENCODING 237
SWIDTH 289 0
DWIDTH 11 0
BBX 8 30 3 0
BITMAP
1F
3E
3C
3C
78
78
00
00
F8
F8
F8
F8
F8
F8
F8
F8
F8
F8
F8
F8
F8
F8
F8
F8
F8
F8
F8
F8
F8
F8
ENDCHAR
STARTCHAR 00EE
ENCODING 238
SWIDTH 289 0
DWIDTH 11 0
BBX 11 30 3 0
BITMAP
0F00
1F80
3F80
3FC0
79E0
70E0
0000
0000
F800
F800
F800
F800
F800
F800
F800
F800
F800
F800
F800
F800
F800
F800
F800
F800
F800
F800
F800
F800
F800
F800
ENDCHAR
STARTCHAR 00EF
ENCODING 239
SWIDTH 289 0
DWIDTH 11 0
BBX 11 29 3 0
BITMAP
FBE0
FBE0
FBE0
FBE0
FBE0
0000
0000
F800
F800
F800
F800
F800
F800
F800
F800
F800
F800
F800
F800
F800
F800
F800
F800
F800
F800
F800
F800
F800
F800
ENDCHAR
STARTCHAR 00F1
ENCODING 241
SWIDTH 605 0
DWIDTH 23 0
BBX 17 29 3 0
BITMAP
0F8600
1FFC00
1FFC00
3FF800
000000
000000
000000
1FFC00
7FFE00
7FFF00
FC1F80
F80F80
F80F80
F80F80
F80F80
F80F80
F80F80
F80F80
F80F80
F80F80
F80F80
F80F80
F80F80
F80F80
F80F80
F80F80
F80F80
F80F80
F80F80
ENDCHAR
STARTCHAR 00F2
ENCODING 242
SWIDTH 605 0
DWIDTH 23 0
BBX 18 30 2 0
BITMAP
1F0000
0F8000
0F8000
078000
03C000
03C000
000000
000000
0FFC00
3FFF00
7FFF80
FC0FC0
F807C0
F807C0
F807C0
F807C0
F807C0
F807C0
F807C0
F807C0
F807C0
F807C0
F807C0
F807C0
F807C0
FC07C0
FE0FC0
7FFF80
7FFF00
1FFC00
ENDCHAR
STARTCHAR 00F3
ENCODING 243
SWIDTH 605 0
DWIDTH 23 0
BBX 18 30 2 0
BITMAP
007C00
007800
00F800
00F000
01E000
01E000
000000
000000
0FFC00
3FFF00
7FFF80
FC0FC0
F807C0
F807C0
F807C0
F807C0
F807C0
F807C0
F807C0
F807C0
F807C0
F807C0
F807C0
F807C0
F807C0
FC07C0
FE0FC0
7FFF80
7FFF00
1FFC00
ENDCHAR
STARTCHAR 00F4
ENCODING 244
SWIDTH 605 0
DWIDTH 23 0
BBX 18 30 2 0
BITMAP
03E000
03F000
07F000
0FF800
0F3800
1E1C00
1C0E00
000000
0FFC00
3FFF00
7FFF80
FC0FC0
F807C0
F807C0
F807C0
F807C0
F807C0
F807C0
F807C0
F807C0
F807C0
F807C0
F807C0
F807C0
F807C0
FC07C0
FE0FC0
7FFF80
7FFF00
1FFC00
ENDCHAR
STARTCHAR 00F5
ENCODING 245
SWIDTH 605 0
DWIDTH 23 0
BBX 18 29 2 0
BITMAP
078600
1FFE00
1FFC00
3FF800
000000
000000
000000
0FFC00
3FFF00
7FFF80
FC0FC0
F807C0
F807C0
F807C0
F807C0
F807C0
F807C0
F807C0
F807C0
F807C0
F807C0
F807C0
F807C0
F807C0
FC07C0
FE0FC0
7FFF80
7FFF00
1FFC00
ENDCHAR
STARTCHAR 00F6
ENCODING 246
SWIDTH 605 0
DWIDTH 23 0
BBX 18 29 2 0
BITMAP
1F3E00
1F3E00
1F3E00
1F3E00
1F3E00
000000
000000
0FFC00
3FFF00
7FFF80
FC0FC0
F807C0
F807C0
F807C0
F807C0
F807C0
F807C0
F807C0
F807C0
F807C0
F807C0
F807C0
F807C0
F807C0
FC07C0
FE0FC0
7FFF80
7FFF00
1FFC00
ENDCHAR
STARTCHAR 00F7
ENCODING 247
SWIDTH 605 0
DWIDTH 23 0
BBX 20 22 1 0
BITMAP
00F800
01F800
01F800
01F800
01F800
00F000
000000
000000
7FFFF0
FFFFF0
FFFFF0
FFFFF0
FFFFF0
7FFFE0
000000
000000
000000
01F800
01F800
01F800
01F800
01F800
ENDCHAR
STARTCHAR 00F8
ENCODING 248
SWIDTH 605 0
DWIDTH 23 0
BBX 18 28 2 -3
BITMAP
000300
000700
000700
0FFE00
3FFF80
7FFF80
FC1FC0
F81FC0
F83FC0
F83FC0
F877C0
F877C0
F8E7C0
F8E7C0
F9C7C0
F9C7C0
FB87C0
FB87C0
FF07C0
FF07C0
FE07C0
FE0FC0
7FFF80
7FFF00
1FFC00
380000
380000
700000
ENDCHAR
STARTCHAR 00F9
ENCODING 249
SWIDTH 605 0
DWIDTH 23 0
BBX 17 30 3 0
BITMAP
0F0000
0F8000
078000
07C000
03C000
01C000
000000
000000
F80F80
F80F80
F80F80
F80F80
F80F80
F80F80
F80F80
F80F80
F80F80
F80F80
F80F80
F80F80
F80F80
F80F80
F80F80
F80F80
F80F80
F80F80
FC1F80
FFFF80
7FFF00
1FFC00
ENDCHAR
STARTCHAR 00FA
ENCODING 250
SWIDTH 605 0
DWIDTH 23 0
BBX 17 30 3 0
BITMAP
007C00
007800
00F800
00F000
01E000
01E000
000000
000000
F80F80
F80F80
F80F80
F80F80
F80F80
F80F80
F80F80
F80F80
F80F80
F80F80
F80F80
F80F80
F80F80
F80F80
F80F80
F80F80
F80F80
F80F80
FC1F80
FFFF80
7FFF00
1FFC00
ENDCHAR
STARTCHAR 00FB
ENCODING 251
SWIDTH 605 0
DWIDTH 23 0
BBX 17 30 3 0
BITMAP
03E000
07E000
07F000
0FF000
0E3800
1C1C00
000000
000000
F80F80
F80F80
F80F80
F80F80
F80F80
F80F80
F80F80
F80F80
F80F80
F80F80
F80F80
F80F80
F80F80
F80F80
F80F80
F80F80
F80F80
F80F80
FC1F80
FFFF80
7FFF00
1FFC00
ENDCHAR
STARTCHAR 00FC
ENCODING 252
SWIDTH 605 0
DWIDTH 23 0
BBX 17 29 3 0
BITMAP
1F7C00
1F7C00
1F7C00
1F7C00
1F7C00
000000
000000
F80F80
F80F80
F80F80
F80F80
F80F80
F80F80
F80F80
F80F80
F80F80
F80F80
F80F80
F80F80
F80F80
F80F80
F80F80
F80F80
F80F80
F80F80
FC1F80
FFFF80
7FFF00
1FFC00
ENDCHAR
STARTCHAR 00FF
ENCODING 255
SWIDTH 578 0
DWIDTH 22 0
BBX 17 29 2 0
BITMAP
1F7C00
1F7C00
1F7C00
1F7C00
1F7C00
000000
000000
F80F80
F80F80
F80F80
F80F80
F80F80
F80F80
F80F80
F80F80
F80F80
FC1F80
FFFF80
7FFF00
3FFE00
03E000
03E000
03E000
03E000
03E000
03E000
03E000
03E000
03E000
ENDCHAR
STARTCHAR 0131
ENCODING 305
SWIDTH 263 0
DWIDTH 10 0
BBX 5 22 3 0
BITMAP
F8
F8
F8
F8
F8
F8
F8
F8
F8
F8
F8
F8
F8
F8
F8
F8
F8
F8
F8
F8
F8
F8
ENDCHAR
STARTCHAR 0152
ENCODING 338
SWIDTH 842 0
DWIDTH 32 0
BBX 27 30 2 0
BITMAP
0FFFFFE0
3FFFFFE0
7FFFFFE0
7FFFFFE0
FE3FE000
FC1FC000
F80F8000
F80F8000
F80F8000
F80F8000
F80F8000
F80F8000
F80FFF00
F80FFF00
F80FFF00
F80FFF00
F80F8000
F80F8000
F80F8000
F80F8000
F80F8000
F80F8000
F80F8000
F80F8000
FC1FC000
FE3FE000
7FFFFFE0
7FFFFFE0
3FFFFFE0
0FFFFFE0
ENDCHAR
STARTCHAR 0153
ENCODING 339
SWIDTH 842 0
DWIDTH 32 0
BBX 27 22 2 0
BITMAP
0FFFFFE0
7FFFFFE0
7FFFFFE0
FC1FC000
F80F8000
F80F8000
F80F8000
F80F8000
F80F8000
F80FFF00
F80FFF00
F80FFF00
F80F8000
F80F8000
F80F8000
F80F8000
F80F8000
F80FC000
FC1FE000
7FFFFFE0
7FFFFFE0
1FFFFFE0
ENDCHAR
STARTCHAR 0160
ENCODING 352
SWIDTH 578 0
DWIDTH 22 0
BBX 0 0 0 0
BITMAP
ENDCHAR
STARTCHAR 0161
ENCODING 353
SWIDTH 578 0
DWIDTH 22 0
BBX 0 0 0 0
BITMAP
ENDCHAR
STARTCHAR 0178
ENCODING 376
SWIDTH 578 0
DWIDTH 22 0
BBX 17 36 2 0
BITMAP
1F7C00
1F7C00
1F7C00
1F7C00
1F7C00
000000
F80F80
F80F80
F80F80
F80F80
F80F80
F80F80
F80F80
F80F80
F80F80
F80F80
F80F80
F80F80
F80F80
FC1F80
FFFF80
FFFF00
7FFF00
3FFC00
03E000
03E000
03E000
03E000
03E000
03E000
03E000
03E000
03E000
03E000
03E000
03E000
ENDCHAR
STARTCHAR 017D
ENCODING 381
SWIDTH 473 0
DWIDTH 18 0
BBX 0 0 0 0
BITMAP
ENDCHAR
STARTCHAR 017E
ENCODING 382
SWIDTH 473 0
DWIDTH 18 0
BBX 0 0 0 0
BITMAP
ENDCHAR
STARTCHAR 02C6
ENCODING 710
SWIDTH 342 0
DWIDTH 13 0
BBX 11 6 1 23
BITMAP
1F00
1F80
3F80
7BC0
71E0
E0E0
ENDCHAR
STARTCHAR 02C7
ENCODING 711
SWIDTH 342 0
DWIDTH 13 0
BBX 12 6 1 23
BITMAP
E0F0
71E0
7BC0
3FC0
1F80
1F00
ENDCHAR
STARTCHAR 02D8
ENCODING 728
SWIDTH 289 0
DWIDTH 11 0
BBX 11 6 1 25
BITMAP
E1E0
F1C0
FFC0
7FC0
7F80
1E00
ENDCHAR
STARTCHAR 02D9
ENCODING 729
SWIDTH 289 0
DWIDTH 11 0
BBX 5 4 3 24
BITMAP
F8
F8
F8
F8
ENDCHAR
STARTCHAR 02DA
ENCODING 730
SWIDTH 236 0
DWIDTH 9 0
BBX 7 7 1 24
BITMAP
38
7C
C6
C6
C6
7C
38
ENDCHAR
STARTCHAR 02DB
ENCODING 731
SWIDTH 289 0
DWIDTH 11 0
BBX 8 8 0 -7
BITMAP
1C
38
70
E0
E0
E0
7F
3E
ENDCHAR
STARTCHAR 02DC
ENCODING 732
SWIDTH 394 0
DWIDTH 15 0
BBX 14 4 0 24
BITMAP
1E0C
3FFC
7FF8
FFF0
ENDCHAR
STARTCHAR 02DD
ENCODING 733
SWIDTH 394 0
DWIDTH 15 0
BBX 14 6 1 23
BITMAP
3E7C
7CF8
78F0
F9F0
F1E0
F3C0
ENDCHAR
STARTCHAR 2013
ENCODING 8211
SWIDTH 605 0
DWIDTH 23 0
BBX 17 4 3 9
BITMAP
FFFF80
FFFF80
FFFF80
FFFF80
ENDCHAR
STARTCHAR 2014
ENCODING 8212
SWIDTH 1000 0
DWIDTH 38 0
BBX 32 4 3 9
BITMAP
FFFFFFFF
FFFFFFFF
FFFFFFFF
FFFFFFFF
ENDCHAR
STARTCHAR 2018
ENCODING 8216
SWIDTH 289 0
DWIDTH 11 0
BBX 6 9 3 21
BITMAP
1C
3C
70
FC
FC
FC
FC
FC
F8
ENDCHAR
STARTCHAR 2019
ENCODING 8217
SWIDTH 289 0
DWIDTH 11 0
BBX 6 9 2 21
BITMAP
7C
FC
FC
FC
FC
1C
38
F0
C0
ENDCHAR
STARTCHAR 201A
ENCODING 8218
SWIDTH 289 0
DWIDTH 11 0
BBX 6 8 2 -3
BITMAP
FC
FC
FC
FC
FC
38
F8
E0
ENDCHAR
STARTCHAR 201C
ENCODING 8220
SWIDTH 500 0
DWIDTH 19 0
BBX 14 9 2 21
BITMAP
1C1C
3C3C
7070
FCFC
FCFC
FCFC
FCFC
FCFC
F8F8
ENDCHAR
STARTCHAR 201D
ENCODING 8221
SWIDTH 500 0
DWIDTH 19 0
BBX 15 9 2 21
BITMAP
7C3E
FC7E
FC7E
FC7E
FC7E
1C0E
381C
F078
C060
ENDCHAR
STARTCHAR 201E
ENCODING 8222
SWIDTH 500 0
DWIDTH 19 0
BBX 15 8 2 -3
BITMAP
FC7E
FC7E
FC7E
FC7E
FC7E
381C
F87C
E070
ENDCHAR
STARTCHAR 2020
ENCODING 8224
SWIDTH 447 0
DWIDTH 17 0
BBX 15 34 1 -4
BITMAP
07C0
07C0
07C0
07C0
07C0
07C0
07C0
07C0
07C0
FFFE
FFFE
FFFE
FFFE
FFFE
07C0
07C0
07C0
07C0
07C0
07C0
07C0
07C0
07C0
07C0
07C0
07C0
07C0
07C0
07C0
07C0
07C0
07C0
07C0
07C0
ENDCHAR
STARTCHAR 2022
ENCODING 8226
SWIDTH 605 0
DWIDTH 23 0
BBX 13 14 5 6
BITMAP
0F80
1FE0
7FF0
7FF8
FFF8
FFF8
FFF8
FFF8
FFF8
FFF8
7FF8
7FF0
3FE0
0F80
ENDCHAR
STARTCHAR 2026
ENCODING 8230
SWIDTH 1000 0
DWIDTH 38 0
BBX 32 5 3 1
BITMAP
FC07E03F
FC07E03F
FC07E03F
FC07E03F
FC07E03F
ENDCHAR
STARTCHAR 2030
ENCODING 8240
SWIDTH 1078 0
DWIDTH 41 0
BBX 38 30 1 0
BITMAP
3FC01C0000
7FE01C0000
F0F0380000
E070780000
E070700000
E070E00000
E070E00000
E071C00000
E071C00000
E073800000
E077800000
F0F7000000
7FEE000000
3FCE000000
001C000000
001C000000
0039FE0FF0
007BFF1FF8
007787BC3C
00E703B81C
00E703B81C
01C703B81C
01C703B81C
038703B81C
078703B81C
070703B81C
0E0703B81C
0E0787BC3C
1C03FF1FF8
1C01FE0FF0
ENDCHAR
STARTCHAR 2039
ENCODING 8249
SWIDTH 236 0
DWIDTH 9 0
BBX 6 14 2 4
BITMAP
1C
38
38
70
F0
E0
E0
E0
70
70
38
38
1C
1C
ENDCHAR
STARTCHAR 203A
ENCODING 8250
SWIDTH 236 0
DWIDTH 9 0
BBX 7 14 1 4
BITMAP
70
70
38
38
1C
1C
0E
0E
1C
3C
38
70
70
E0
ENDCHAR
STARTCHAR 2044
ENCODING 8260
SWIDTH 421 0
DWIDTH 16 0
BBX 19 30 -1 0
BITMAP
0000E0
0001C0
0001C0
000380
000300
000700
000600
000E00
001C00
001C00
003800
003800
007000
007000
00E000
00C000
01C000
018000
038000
070000
070000
0E0000
0E0000
1C0000
180000
380000
300000
700000
E00000
E00000
ENDCHAR
STARTCHAR 2122
ENCODING 8482
SWIDTH 605 0
DWIDTH 23 0
BBX 18 9 2 20
BITMAP
FCFF80
31FDC0
3198C0
3198C0
3198C0
3198C0
3198C0
3198C0
3198C0
ENDCHAR
STARTCHAR 2202
ENCODING 8706
SWIDTH 605 0
DWIDTH 23 0
BBX 18 30 2 0
BITMAP
0FFC00
3FFF00
7FFF80
7FFF80
FE1FC0
FC0FC0
F807C0
F807C0
F807C0
F807C0
F807C0
F807C0
F807C0
FFFFC0
FFFFC0
FFFFC0
FFFFC0
F807C0
F807C0
F807C0
F807C0
F807C0
F807C0
F807C0
FC0FC0
FE1FC0
7FFF80
7FFF80
3FFF00
0FFC00
ENDCHAR
STARTCHAR 220F
ENCODING 8719
SWIDTH 578 0
DWIDTH 22 0
BBX 0 0 0 0
BITMAP
ENDCHAR
STARTCHAR 2211
ENCODING 8721
SWIDTH 578 0
DWIDTH 22 0
BBX 16 25 3 -3
BITMAP
1FF8
7FFE
7FFF
FC3F
F81F
F81F
F81F
F83F
F9FE
F9F8
F9FE
F83F
F81F
F81F
F81F
F81F
F81F
F81F
F83F
F9FF
F9FE
F9F8
F800
F800
F800
ENDCHAR
STARTCHAR 2260
ENCODING 8800
SWIDTH 552 0
DWIDTH 21 0
BBX 16 25 3 -3
BITMAP
1FF8
7FFE
7FFF
FC3F
F81F
F81F
F81F
F83F
F9FE
F9F8
F9FE
F83F
F81F
F81F
F81F
F81F
F81F
F81F
F83F
F9FF
F9FE
F9F8
F800
F800
F800
ENDCHAR
ENDFONT
